<svg xmlns="http://www.w3.org/2000/svg" xmlns:xlink="http://www.w3.org/1999/xlink" id="Layer_1" x="0" y="0" version="1.1" viewBox="0 0 1000 1000" style="enable-background:new 0 0 1000 1000" xml:space="preserve"><style type="text/css">.st0,.st1{stroke:#000;stroke-linecap:round;stroke-linejoin:round;stroke-miterlimit:10}.st0{fill:#fff;stroke-width:115}.st1{stroke-width:100}.st2{fill:#fff}</style><path d="M672.5,929.5h-344c-141.9,0-257-115.1-257-257v-344c0-141.9,115.1-257,257-257h344c141.9,0,257,115.1,257,257	v344C929.5,814.4,814.4,929.5,672.5,929.5z" class="st0"/><circle cx="662.5" cy="337.5" r="82.5" class="st1"/><circle cx="337.5" cy="662.5" r="82.5" class="st1"/><circle cx="662.5" cy="662.5" r="82.5" class="st1"/><circle cx="337.5" cy="337.5" r="82.5" class="st1"/><path d="M571,639H428c-37.6,0-68-30.4-68-68V428c0-37.6,30.4-68,68-68h143c37.6,0,68,30.4,68,68v143	C639,608.6,608.6,639,571,639z" class="st2"/></svg>